<?xml version="1.0" encoding="UTF-8" standalone="no"?>
<!-- Created with Inkscape (http://www.inkscape.org/) -->

<svg
   xmlns:dc="http://purl.org/dc/elements/1.1/"
   xmlns:cc="http://creativecommons.org/ns#"
   xmlns:rdf="http://www.w3.org/1999/02/22-rdf-syntax-ns#"
   xmlns:svg="http://www.w3.org/2000/svg"
   xmlns="http://www.w3.org/2000/svg"
   xmlns:xlink="http://www.w3.org/1999/xlink"
   version="1.1"
   width="3122.0874"
   height="2756.5774"
   id="svg3042"
   xml:space="preserve"><metadata
     id="metadata3048"><rdf:RDF><cc:Work
         rdf:about=""><dc:format>image/svg+xml</dc:format><dc:type
           rdf:resource="http://purl.org/dc/dcmitype/StillImage" /><dc:title></dc:title></cc:Work></rdf:RDF></metadata><defs
     id="defs3046"><linearGradient
       id="linearGradient6019"><stop
         id="stop6021"
         style="stop-color:#000000;stop-opacity:1"
         offset="0" /><stop
         id="stop6023"
         style="stop-color:#000000;stop-opacity:0"
         offset="1" /></linearGradient><linearGradient
       id="linearGradient4377"><stop
         id="stop4379"
         style="stop-color:#000000;stop-opacity:1"
         offset="0" /><stop
         id="stop4381"
         style="stop-color:#000000;stop-opacity:0"
         offset="1" /></linearGradient><linearGradient
       id="linearGradient4365"><stop
         id="stop4367"
         style="stop-color:#000000;stop-opacity:1"
         offset="0" /><stop
         id="stop4369"
         style="stop-color:#000000;stop-opacity:0"
         offset="1" /></linearGradient><clipPath
       id="clipPath3244"><path
         d="m 0,0 2209.059,0 0,2196 L 0,2196 0,0 z"
         id="path3246" /></clipPath><clipPath
       id="clipPath3256"><path
         d="m 0,2196 5868,0 L 5868,0 0,0 0,2196 z"
         id="path3258" /></clipPath><clipPath
       id="clipPath3456"><path
         d="m 0,2196 5868,0 L 5868,0 0,0 0,2196 z"
         id="path3458" /></clipPath><clipPath
       id="clipPath3472"><path
         d="m 0,91.999 3507,0 L 3507,2196 0,2196 0,91.999 z"
         id="path3474" /></clipPath><radialGradient
       cx="0"
       cy="0"
       r="1"
       fx="0"
       fy="0"
       id="radialGradient3484"
       gradientUnits="userSpaceOnUse"
       gradientTransform="matrix(1762.1426,0,0,-1530.2336,1617.9995,1503.5)"
       spreadMethod="pad"><stop
         id="stop3486"
         style="stop-color:#ffffff;stop-opacity:0"
         offset="0" /><stop
         id="stop3488"
         style="stop-color:#ffffff;stop-opacity:0.65123981"
         offset="0.90908802" /><stop
         id="stop3490"
         style="stop-color:#ffffff;stop-opacity:0.65123981"
         offset="0.90908802" /><stop
         id="stop3492"
         style="stop-color:#ffffff;stop-opacity:1"
         offset="0.96363801" /><stop
         id="stop3494"
         style="stop-color:#ffffff;stop-opacity:1"
         offset="1" /></radialGradient><mask
       id="mask3496"><g
         id="g3498"><g
           id="g3500"><g
             id="g3502"><g
               id="g3504"><path
                 d="m -32767,32767 65534,0 0,-65534 -65534,0 0,65534 z"
                 id="path3506"
                 style="fill:url(#radialGradient3484);stroke:none" /></g></g></g></g></mask><radialGradient
       cx="0"
       cy="0"
       r="1"
       fx="0"
       fy="0"
       id="radialGradient3512"
       gradientUnits="userSpaceOnUse"
       gradientTransform="matrix(1762.1426,0,0,-1530.2336,1617.9995,1503.5)"
       spreadMethod="pad"><stop
         id="stop3514"
         style="stop-color:#ffffff;stop-opacity:1"
         offset="0" /><stop
         id="stop3516"
         style="stop-color:#ffffff;stop-opacity:1"
         offset="0.90908802" /><stop
         id="stop3518"
         style="stop-color:#ffffff;stop-opacity:1"
         offset="0.96363801" /><stop
         id="stop3520"
         style="stop-color:#ffffff;stop-opacity:1"
         offset="1" /></radialGradient><clipPath
       id="clipPath3530"><path
         d="m 0,2196 5868,0 L 5868,0 0,0 0,2196 z"
         id="path3532" /></clipPath><filter
       x="0"
       y="0"
       width="1"
       height="1"
       color-interpolation-filters="sRGB"
       id="filter3563"><feColorMatrix
         result="result2"
         type="saturate"
         in="SourceGraphic"
         values="0"
         id="feColorMatrix3565" /><feFlood
         result="result1"
         flood-opacity="1"
         flood-color="rgb(160,67,0)"
         id="feFlood3567" /><feBlend
         in2="result1"
         mode="multiply"
         in="result2"
         result="result5"
         id="feBlend3569" /><feBlend
         in2="result2"
         mode="screen"
         result="result3"
         id="feBlend3571" /><feComposite
         in2="result2"
         operator="arithmetic"
         k1="0"
         k2="1"
         k3="0"
         k4="0"
         result="result4"
         id="feComposite3573" /><feComposite
         in2="SourceAlpha"
         operator="in"
         in="result4"
         id="feComposite3575" /></filter><radialGradient
       cx="418.80042"
       cy="1832.494"
       r="1116.1451"
       fx="418.80042"
       fy="1832.494"
       id="radialGradient6029"
       xlink:href="#linearGradient6019"
       gradientUnits="userSpaceOnUse"
       gradientTransform="matrix(0.89831495,-0.43935209,0.56426788,1.1537222,-960.9393,-136.15301)" /><radialGradient
       cx="418.80042"
       cy="1832.494"
       r="1116.1451"
       fx="418.80042"
       fy="1832.494"
       id="radialGradient6035"
       xlink:href="#linearGradient6019"
       gradientUnits="userSpaceOnUse"
       gradientTransform="matrix(0.89831495,-0.43935209,0.56426788,1.1537222,-960.9393,-136.15301)" /><radialGradient
       cx="418.80042"
       cy="1832.494"
       r="1116.1451"
       fx="418.80042"
       fy="1832.494"
       id="radialGradient6037"
       xlink:href="#linearGradient6019"
       gradientUnits="userSpaceOnUse"
       gradientTransform="matrix(0.89831495,-0.43935209,0.56426788,1.1537222,-960.9393,-136.15301)" /><radialGradient
       cx="418.80042"
       cy="1832.494"
       r="1116.1451"
       fx="418.80042"
       fy="1832.494"
       id="radialGradient6039"
       xlink:href="#linearGradient6019"
       gradientUnits="userSpaceOnUse"
       gradientTransform="matrix(0.89831495,-0.43935209,0.56426788,1.1537222,-960.9393,-136.15301)" /><radialGradient
       cx="418.80042"
       cy="1832.494"
       r="1116.1451"
       fx="418.80042"
       fy="1832.494"
       id="radialGradient6041"
       xlink:href="#linearGradient6019"
       gradientUnits="userSpaceOnUse"
       gradientTransform="matrix(0.89831495,-0.43935209,0.56426788,1.1537222,-960.9393,-136.15301)" /><radialGradient
       cx="418.80042"
       cy="1832.494"
       r="1116.1451"
       fx="418.80042"
       fy="1832.494"
       id="radialGradient6043"
       xlink:href="#linearGradient6019"
       gradientUnits="userSpaceOnUse"
       gradientTransform="matrix(0.89831495,-0.43935209,0.56426788,1.1537222,-960.9393,-136.15301)" /><radialGradient
       cx="418.80042"
       cy="1832.494"
       r="1116.1451"
       fx="418.80042"
       fy="1832.494"
       id="radialGradient6045"
       xlink:href="#linearGradient6019"
       gradientUnits="userSpaceOnUse"
       gradientTransform="matrix(0.89831495,-0.43935209,0.56426788,1.1537222,-960.9393,-136.15301)" /><radialGradient
       cx="418.80042"
       cy="1832.494"
       r="1116.1451"
       fx="418.80042"
       fy="1832.494"
       id="radialGradient6047"
       xlink:href="#linearGradient6019"
       gradientUnits="userSpaceOnUse"
       gradientTransform="matrix(0.89831495,-0.43935209,0.56426788,1.1537222,-960.9393,-136.15301)" /><radialGradient
       cx="418.80042"
       cy="1832.494"
       r="1116.1451"
       fx="418.80042"
       fy="1832.494"
       id="radialGradient6049"
       xlink:href="#linearGradient6019"
       gradientUnits="userSpaceOnUse"
       gradientTransform="matrix(0.89831495,-0.43935209,0.56426788,1.1537222,-960.9393,-136.15301)" /><radialGradient
       cx="418.80042"
       cy="1832.494"
       r="1116.1451"
       fx="418.80042"
       fy="1832.494"
       id="radialGradient6051"
       xlink:href="#linearGradient6019"
       gradientUnits="userSpaceOnUse"
       gradientTransform="matrix(0.89831495,-0.43935209,0.56426788,1.1537222,-960.9393,-136.15301)" /><radialGradient
       cx="418.80042"
       cy="1832.494"
       r="1116.1451"
       fx="418.80042"
       fy="1832.494"
       id="radialGradient6053"
       xlink:href="#linearGradient6019"
       gradientUnits="userSpaceOnUse"
       gradientTransform="matrix(0.89831495,-0.43935209,0.56426788,1.1537222,-960.9393,-136.15301)" /><radialGradient
       cx="418.80042"
       cy="1832.494"
       r="1116.1451"
       fx="418.80042"
       fy="1832.494"
       id="radialGradient6093"
       xlink:href="#linearGradient6019"
       gradientUnits="userSpaceOnUse"
       gradientTransform="matrix(0.89831495,-0.43935209,0.56426788,1.1537222,-960.9393,-136.15301)" /><radialGradient
       cx="418.80042"
       cy="1832.494"
       r="1116.1451"
       fx="418.80042"
       fy="1832.494"
       id="radialGradient6095"
       xlink:href="#linearGradient6019"
       gradientUnits="userSpaceOnUse"
       gradientTransform="matrix(0.89831495,-0.43935209,0.56426788,1.1537222,-960.9393,-136.15301)" /><radialGradient
       cx="418.80042"
       cy="1832.494"
       r="1116.1451"
       fx="418.80042"
       fy="1832.494"
       id="radialGradient6097"
       xlink:href="#linearGradient6019"
       gradientUnits="userSpaceOnUse"
       gradientTransform="matrix(0.89831495,-0.43935209,0.56426788,1.1537222,-960.9393,-136.15301)" /><radialGradient
       cx="418.80042"
       cy="1832.494"
       r="1116.1451"
       fx="418.80042"
       fy="1832.494"
       id="radialGradient6099"
       xlink:href="#linearGradient6019"
       gradientUnits="userSpaceOnUse"
       gradientTransform="matrix(0.89831495,-0.43935209,0.56426788,1.1537222,-960.9393,-136.15301)" /><radialGradient
       cx="418.80042"
       cy="1832.494"
       r="1116.1451"
       fx="418.80042"
       fy="1832.494"
       id="radialGradient6101"
       xlink:href="#linearGradient6019"
       gradientUnits="userSpaceOnUse"
       gradientTransform="matrix(0.89831495,-0.43935209,0.56426788,1.1537222,-960.9393,-136.15301)" /><radialGradient
       cx="418.80042"
       cy="1832.494"
       r="1116.1451"
       fx="418.80042"
       fy="1832.494"
       id="radialGradient6103"
       xlink:href="#linearGradient6019"
       gradientUnits="userSpaceOnUse"
       gradientTransform="matrix(0.89831495,-0.43935209,0.56426788,1.1537222,-960.9393,-136.15301)" /><radialGradient
       cx="418.80042"
       cy="1832.494"
       r="1116.1451"
       fx="418.80042"
       fy="1832.494"
       id="radialGradient6105"
       xlink:href="#linearGradient6019"
       gradientUnits="userSpaceOnUse"
       gradientTransform="matrix(0.89831495,-0.43935209,0.56426788,1.1537222,-960.9393,-136.15301)" /><radialGradient
       cx="418.80042"
       cy="1832.494"
       r="1116.1451"
       fx="418.80042"
       fy="1832.494"
       id="radialGradient6107"
       xlink:href="#linearGradient6019"
       gradientUnits="userSpaceOnUse"
       gradientTransform="matrix(0.89831495,-0.43935209,0.56426788,1.1537222,-960.9393,-136.15301)" /><radialGradient
       cx="418.80042"
       cy="1832.494"
       r="1116.1451"
       fx="418.80042"
       fy="1832.494"
       id="radialGradient6109"
       xlink:href="#linearGradient6019"
       gradientUnits="userSpaceOnUse"
       gradientTransform="matrix(0.89831495,-0.43935209,0.56426788,1.1537222,-960.9393,-136.15301)" /><radialGradient
       cx="418.80042"
       cy="1832.494"
       r="1116.1451"
       fx="418.80042"
       fy="1832.494"
       id="radialGradient6111"
       xlink:href="#linearGradient6019"
       gradientUnits="userSpaceOnUse"
       gradientTransform="matrix(0.89831495,-0.43935209,0.56426788,1.1537222,-960.9393,-136.15301)" /><radialGradient
       cx="418.80042"
       cy="1832.494"
       r="1116.1451"
       fx="418.80042"
       fy="1832.494"
       id="radialGradient6113"
       xlink:href="#linearGradient6019"
       gradientUnits="userSpaceOnUse"
       gradientTransform="matrix(0.89831495,-0.43935209,0.56426788,1.1537222,-960.9393,-136.15301)" /><radialGradient
       cx="418.80042"
       cy="1832.494"
       r="1116.1451"
       fx="418.80042"
       fy="1832.494"
       id="radialGradient6115"
       xlink:href="#linearGradient6019"
       gradientUnits="userSpaceOnUse"
       gradientTransform="matrix(0.89831495,-0.43935209,0.56426788,1.1537222,-960.9393,-136.15301)" /><radialGradient
       cx="418.80042"
       cy="1832.494"
       r="1116.1451"
       fx="418.80042"
       fy="1832.494"
       id="radialGradient6117"
       xlink:href="#linearGradient6019"
       gradientUnits="userSpaceOnUse"
       gradientTransform="matrix(0.89831495,-0.43935209,0.56426788,1.1537222,-960.9393,-136.15301)" /><radialGradient
       cx="418.80042"
       cy="1832.494"
       r="1116.1451"
       fx="418.80042"
       fy="1832.494"
       id="radialGradient6119"
       xlink:href="#linearGradient6019"
       gradientUnits="userSpaceOnUse"
       gradientTransform="matrix(0.89831495,-0.43935209,0.56426788,1.1537222,-960.9393,-136.15301)" /><radialGradient
       cx="418.80042"
       cy="1832.494"
       r="1116.1451"
       fx="418.80042"
       fy="1832.494"
       id="radialGradient6121"
       xlink:href="#linearGradient6019"
       gradientUnits="userSpaceOnUse"
       gradientTransform="matrix(0.89831495,-0.43935209,0.56426788,1.1537222,-960.9393,-136.15301)" /><radialGradient
       cx="418.80042"
       cy="1832.494"
       r="1116.1451"
       fx="418.80042"
       fy="1832.494"
       id="radialGradient6123"
       xlink:href="#linearGradient6019"
       gradientUnits="userSpaceOnUse"
       gradientTransform="matrix(0.89831495,-0.43935209,0.56426788,1.1537222,-960.9393,-136.15301)" /><radialGradient
       cx="418.80042"
       cy="1832.494"
       r="1116.1451"
       fx="418.80042"
       fy="1832.494"
       id="radialGradient6125"
       xlink:href="#linearGradient6019"
       gradientUnits="userSpaceOnUse"
       gradientTransform="matrix(0.89831495,-0.43935209,0.56426788,1.1537222,-960.9393,-136.15301)" /><radialGradient
       cx="418.80042"
       cy="1832.494"
       r="1116.1451"
       fx="418.80042"
       fy="1832.494"
       id="radialGradient6127"
       xlink:href="#linearGradient6019"
       gradientUnits="userSpaceOnUse"
       gradientTransform="matrix(0.89831495,-0.43935209,0.56426788,1.1537222,-960.9393,-136.15301)" /><radialGradient
       cx="418.80042"
       cy="1832.494"
       r="1116.1451"
       fx="418.80042"
       fy="1832.494"
       id="radialGradient6129"
       xlink:href="#linearGradient6019"
       gradientUnits="userSpaceOnUse"
       gradientTransform="matrix(0.89831495,-0.43935209,0.56426788,1.1537222,-960.9393,-136.15301)" /><radialGradient
       cx="418.80042"
       cy="1832.494"
       r="1116.1451"
       fx="418.80042"
       fy="1832.494"
       id="radialGradient6131"
       xlink:href="#linearGradient6019"
       gradientUnits="userSpaceOnUse"
       gradientTransform="matrix(0.89831495,-0.43935209,0.56426788,1.1537222,-960.9393,-136.15301)" /><radialGradient
       cx="418.80042"
       cy="1832.494"
       r="1116.1451"
       fx="418.80042"
       fy="1832.494"
       id="radialGradient6133"
       xlink:href="#linearGradient6019"
       gradientUnits="userSpaceOnUse"
       gradientTransform="matrix(0.89831495,-0.43935209,0.56426788,1.1537222,-960.9393,-136.15301)" /><radialGradient
       cx="418.80042"
       cy="1832.494"
       r="1116.1451"
       fx="418.80042"
       fy="1832.494"
       id="radialGradient6135"
       xlink:href="#linearGradient6019"
       gradientUnits="userSpaceOnUse"
       gradientTransform="matrix(0.89831495,-0.43935209,0.56426788,1.1537222,-960.9393,-136.15301)" /><radialGradient
       cx="418.80042"
       cy="1832.494"
       r="1116.1451"
       fx="418.80042"
       fy="1832.494"
       id="radialGradient6137"
       xlink:href="#linearGradient6019"
       gradientUnits="userSpaceOnUse"
       gradientTransform="matrix(0.89831495,-0.43935209,0.56426788,1.1537222,-960.9393,-136.15301)" /><radialGradient
       cx="418.80042"
       cy="1832.494"
       r="1116.1451"
       fx="418.80042"
       fy="1832.494"
       id="radialGradient6139"
       xlink:href="#linearGradient6019"
       gradientUnits="userSpaceOnUse"
       gradientTransform="matrix(0.89831495,-0.43935209,0.56426788,1.1537222,-960.9393,-136.15301)" /><radialGradient
       cx="418.80042"
       cy="1832.494"
       r="1116.1451"
       fx="418.80042"
       fy="1832.494"
       id="radialGradient6141"
       xlink:href="#linearGradient6019"
       gradientUnits="userSpaceOnUse"
       gradientTransform="matrix(0.89831495,-0.43935209,0.56426788,1.1537222,-960.9393,-136.15301)" /><radialGradient
       cx="418.80042"
       cy="1832.494"
       r="1116.1451"
       fx="418.80042"
       fy="1832.494"
       id="radialGradient6143"
       xlink:href="#linearGradient6019"
       gradientUnits="userSpaceOnUse"
       gradientTransform="matrix(0.89831495,-0.43935209,0.56426788,1.1537222,-960.9393,-136.15301)" /><radialGradient
       cx="418.80042"
       cy="1832.494"
       r="1116.1451"
       fx="418.80042"
       fy="1832.494"
       id="radialGradient6145"
       xlink:href="#linearGradient6019"
       gradientUnits="userSpaceOnUse"
       gradientTransform="matrix(0.89831495,-0.43935209,0.56426788,1.1537222,-960.9393,-136.15301)" /><radialGradient
       cx="418.80042"
       cy="1832.494"
       r="1116.1451"
       fx="418.80042"
       fy="1832.494"
       id="radialGradient6147"
       xlink:href="#linearGradient6019"
       gradientUnits="userSpaceOnUse"
       gradientTransform="matrix(0.89831495,-0.43935209,0.56426788,1.1537222,-960.9393,-136.15301)" /><radialGradient
       cx="418.80042"
       cy="1832.494"
       r="1116.1451"
       fx="418.80042"
       fy="1832.494"
       id="radialGradient6149"
       xlink:href="#linearGradient6019"
       gradientUnits="userSpaceOnUse"
       gradientTransform="matrix(0.89831495,-0.43935209,0.56426788,1.1537222,-960.9393,-136.15301)" /><radialGradient
       cx="418.80042"
       cy="1832.494"
       r="1116.1451"
       fx="418.80042"
       fy="1832.494"
       id="radialGradient6151"
       xlink:href="#linearGradient6019"
       gradientUnits="userSpaceOnUse"
       gradientTransform="matrix(0.89831495,-0.43935209,0.56426788,1.1537222,-960.9393,-136.15301)" /><radialGradient
       cx="418.80042"
       cy="1832.494"
       r="1116.1451"
       fx="418.80042"
       fy="1832.494"
       id="radialGradient6153"
       xlink:href="#linearGradient6019"
       gradientUnits="userSpaceOnUse"
       gradientTransform="matrix(0.89831495,-0.43935209,0.56426788,1.1537222,-960.9393,-136.15301)" /><radialGradient
       cx="418.80042"
       cy="1832.494"
       r="1116.1451"
       fx="418.80042"
       fy="1832.494"
       id="radialGradient6155"
       xlink:href="#linearGradient6019"
       gradientUnits="userSpaceOnUse"
       gradientTransform="matrix(0.89831495,-0.43935209,0.56426788,1.1537222,-960.9393,-136.15301)" /><radialGradient
       cx="418.80042"
       cy="1832.494"
       r="1116.1451"
       fx="418.80042"
       fy="1832.494"
       id="radialGradient6157"
       xlink:href="#linearGradient6019"
       gradientUnits="userSpaceOnUse"
       gradientTransform="matrix(0.89831495,-0.43935209,0.56426788,1.1537222,-960.9393,-136.15301)" /><radialGradient
       cx="418.80042"
       cy="1832.494"
       r="1116.1451"
       fx="418.80042"
       fy="1832.494"
       id="radialGradient6159"
       xlink:href="#linearGradient6019"
       gradientUnits="userSpaceOnUse"
       gradientTransform="matrix(0.89831495,-0.43935209,0.56426788,1.1537222,-960.9393,-136.15301)" /><radialGradient
       cx="418.80042"
       cy="1832.494"
       r="1116.1451"
       fx="418.80042"
       fy="1832.494"
       id="radialGradient6161"
       xlink:href="#linearGradient6019"
       gradientUnits="userSpaceOnUse"
       gradientTransform="matrix(0.89831495,-0.43935209,0.56426788,1.1537222,-960.9393,-136.15301)" /><radialGradient
       cx="418.80042"
       cy="1832.494"
       r="1116.1451"
       fx="418.80042"
       fy="1832.494"
       id="radialGradient6163"
       xlink:href="#linearGradient6019"
       gradientUnits="userSpaceOnUse"
       gradientTransform="matrix(0.89831495,-0.43935209,0.56426788,1.1537222,-960.9393,-136.15301)" /><radialGradient
       cx="418.80042"
       cy="1832.494"
       r="1116.1451"
       fx="418.80042"
       fy="1832.494"
       id="radialGradient6165"
       xlink:href="#linearGradient6019"
       gradientUnits="userSpaceOnUse"
       gradientTransform="matrix(0.89831495,-0.43935209,0.56426788,1.1537222,-960.9393,-136.15301)" /><radialGradient
       cx="418.80042"
       cy="1832.494"
       r="1116.1451"
       fx="418.80042"
       fy="1832.494"
       id="radialGradient6185"
       xlink:href="#linearGradient6019"
       gradientUnits="userSpaceOnUse"
       gradientTransform="matrix(0.89831495,-0.43935209,0.56426788,1.1537222,-960.9393,-136.15301)" /></defs><g
     transform="matrix(1.25,0,0,-1.25,0,2745)"
     id="g3050"><g
       id="g3252"><g
         transform="translate(12.349168,-9.2618396)"
         clip-path="url(#clipPath3256)"
         id="g3254"
         style="fill:url(#radialGradient6165);fill-opacity:1;filter:url(#filter3563)"><g
           transform="translate(1292.21,1786.6693)"
           id="g3260"
           style="fill:url(#radialGradient6053);fill-opacity:1"><path
             d="m 0,0 c 17.948,0.792 43.699,10.638 46.368,-8.064 0.734,-5.142 -2.349,-26.389 -3.024,-35.28 C 41.251,-70.905 17.323,-97.367 0,-104.833 c -7.963,17.91 -16.807,34.937 -30.24,47.377 -46.653,21.909 -100.909,0.306 -100.8,-53.424 -8.811,-15.611 -47.197,-5.959 -46.368,13.104 0.266,6.127 7.817,12.664 8.064,20.16 0.329,9.96 -4.01,20.641 -3.024,30.24 7.699,74.972 89.982,73.653 161.28,58.463 C -5.333,9.452 -5.208,2.184 0,0"
             id="path3262"
             style="fill:url(#radialGradient6051);fill-opacity:1;fill-rule:evenodd;stroke:none" /></g><g
           transform="translate(1260.962,1704.013)"
           id="g3264"
           style="fill:url(#radialGradient6049);fill-opacity:1"><path
             d="m 0,0 c -2.851,-0.846 -6.222,-1.17 -9.072,-2.016 -8.553,-10.375 -8.981,-20.887 -17.136,-28.224 -16.94,-15.24 -27.77,6.843 -42.336,7.056 -9.591,0.141 -15.926,-14.435 -26.208,-8.064 C -82.806,-3.438 -28.843,39.059 0,0"
             id="path3266"
             style="fill:url(#radialGradient6047);fill-opacity:1;fill-rule:evenodd;stroke:none" /></g><g
           transform="translate(529.2822,766.9209)"
           id="g3268"
           style="fill:url(#radialGradient6095);fill-opacity:1"><path
             d="m 0,0 c -4.949,5.13 -5.467,14.692 -15.12,15.12 0.419,3.406 -28.077,58.463 0,51.407 10.654,-2.676 25.293,-34.22 26.208,-50.4 C 5.542,12.602 5.906,3.165 0,0 -4.949,5.13 5.906,3.165 0,0"
             id="path3270"
             style="fill:url(#radialGradient6093);fill-opacity:1;fill-rule:evenodd;stroke:none" /></g><g
           transform="translate(1361.8882,669.1445)"
           id="g3272"
           style="fill:url(#radialGradient6099);fill-opacity:1"><path
             d="M 0,0 C 9.663,-30.982 -16.634,-68.351 -21.168,-101.808 -20.82,-63.25 -54.574,-2.537 0,0"
             id="path3274"
             style="fill:url(#radialGradient6097);fill-opacity:1;fill-rule:evenodd;stroke:none" /></g><g
           transform="translate(1545.3438,519.9609)"
           id="g3280"
           style="fill:url(#radialGradient6103);fill-opacity:1"><path
             d="m 0,0 c -39.109,9.617 -70.286,35.884 -78.624,79.632 26.729,3.837 32.92,-25.521 42.336,-45.36 C -28.146,17.117 -7.32,16.133 0,0"
             id="path3282"
             style="fill:url(#radialGradient6101);fill-opacity:1;fill-rule:evenodd;stroke:none" /></g><g
           transform="translate(1419.3438,590.5215)"
           id="g3284"
           style="fill:url(#radialGradient6107);fill-opacity:1"><path
             d="m 0,0 c 39.203,-9.183 37.241,-59.529 78.625,-66.529 15.551,-23.424 62.503,-15.449 79.631,-37.295 -11.968,7.341 -28.165,-0.017 -42.336,1.008 -18.294,1.322 -22.996,20.769 -42.336,24.191 -35.251,6.239 -75.302,9.474 -95.759,31.249 11.579,3.32 29.295,-5.062 38.303,-1.009 C 6.123,-37.066 -7.255,-19.399 0,0"
             id="path3286"
             style="fill:url(#radialGradient6105);fill-opacity:1;fill-rule:evenodd;stroke:none" /></g><g
           transform="translate(1353.8242,546.1689)"
           id="g3288"
           style="fill:url(#radialGradient6111);fill-opacity:1"><path
             d="m 0,0 c 21.619,-2.908 29.508,-19.548 45.36,-28.225 17.524,4.536 56.456,-3.88 68.544,-20.159 8.019,-10.799 11.092,-24.246 18.144,-36.287 6.576,-11.23 16.063,-17.846 18.144,-30.241 5.308,-31.626 -5.932,-58.14 -23.184,-75.6 -5.417,29.864 -23.641,46.918 -26.208,79.632 3.337,5.065 13.413,3.386 16.128,9.072 -6.859,19.7 -30.01,16.765 -44.352,25.201 C 44.139,-59.883 19.134,-28.245 0,-3.023 L 0,0 z"
             id="path3290"
             style="fill:url(#radialGradient6109);fill-opacity:1;fill-rule:evenodd;stroke:none" /></g><g
           transform="translate(1568.5278,451.418)"
           id="g3296"
           style="fill:url(#radialGradient6115);fill-opacity:1"><path
             d="M 0,0 C 8.514,0.894 7.965,10.85 15.121,13.104 32.52,-27.15 -4.2,-56.56 -22.176,-85.681 c -19.218,-31.132 -24.828,-75.572 -58.464,-86.687 -3.238,26.905 14.668,51.057 22.176,73.584 12.136,36.405 1.991,76.191 17.136,111.888 C -23.078,16.963 -9.961,7.713 0,0"
             id="path3298"
             style="fill:url(#radialGradient6113);fill-opacity:1;fill-rule:evenodd;stroke:none" /></g><g
           transform="translate(54.5151,140.9541)"
           id="g3320"
           style="fill:url(#radialGradient6119);fill-opacity:1"><path
             d="M 0,0 C 8.726,-18.672 17.126,-37.487 25.2,-56.448 -18.575,-73.339 -4.391,-23.219 -21.168,-4.032 -15.113,0.374 5.201,0.356 0,0 4.268,-15.101 -7.861,-0.54 0,0"
             id="path3322"
             style="fill:url(#radialGradient6117);fill-opacity:1;fill-rule:evenodd;stroke:none" /></g><g
           transform="translate(1292.21,1786.6693)"
           id="g3324"
           style="fill:url(#radialGradient6045);fill-opacity:1"><path
             d="m 0,0 c 17.948,0.792 43.699,10.638 46.368,-8.064 0.734,-5.142 -2.349,-26.389 -3.024,-35.28 C 41.251,-70.905 17.323,-97.367 0,-104.833 c -7.963,17.91 -16.807,34.937 -30.24,47.377 -46.653,21.909 -100.909,0.306 -100.8,-53.424 -8.811,-15.611 -47.197,-5.959 -46.368,13.104 0.266,6.127 7.817,12.664 8.064,20.16 0.329,9.96 -4.01,20.641 -3.024,30.24 7.699,74.972 89.982,73.653 161.28,58.463 C -5.333,9.452 -5.208,2.184 0,0"
             id="path3326"
             style="fill:url(#radialGradient6043);fill-opacity:1;fill-rule:nonzero;stroke:none" /></g><g
           transform="translate(1260.962,1704.013)"
           id="g3328"
           style="fill:url(#radialGradient6041);fill-opacity:1"><path
             d="m 0,0 c -2.851,-0.846 -6.222,-1.17 -9.072,-2.016 -8.553,-10.375 -8.981,-20.887 -17.136,-28.224 -16.94,-15.24 -27.77,6.843 -42.336,7.056 -9.591,0.141 -15.926,-14.435 -26.208,-8.064 C -82.806,-3.438 -28.843,39.059 0,0"
             id="path3330"
             style="fill:url(#radialGradient6039);fill-opacity:1;fill-rule:nonzero;stroke:none" /></g><g
           transform="translate(529.2822,766.9209)"
           id="g3332"
           style="fill:url(#radialGradient6123);fill-opacity:1"><path
             d="m 0,0 c -4.949,5.13 -5.467,14.692 -15.12,15.12 0.419,3.406 -28.077,58.463 0,51.407 10.654,-2.676 25.293,-34.22 26.208,-50.4 C 5.542,12.602 5.906,3.165 0,0 -4.949,5.13 5.906,3.165 0,0"
             id="path3334"
             style="fill:url(#radialGradient6121);fill-opacity:1;fill-rule:nonzero;stroke:none" /></g><g
           transform="translate(1361.8882,669.1445)"
           id="g3336"
           style="fill:url(#radialGradient6127);fill-opacity:1"><path
             d="M 0,0 C 9.663,-30.982 -16.634,-68.351 -21.168,-101.808 -20.82,-63.25 -54.574,-2.537 0,0"
             id="path3338"
             style="fill:url(#radialGradient6125);fill-opacity:1;fill-rule:nonzero;stroke:none" /></g><g
           transform="translate(1545.3438,519.9609)"
           id="g3344"
           style="fill:url(#radialGradient6131);fill-opacity:1"><path
             d="m 0,0 c -39.109,9.617 -70.286,35.884 -78.624,79.632 26.729,3.837 32.92,-25.521 42.336,-45.36 C -28.146,17.117 -7.32,16.133 0,0"
             id="path3346"
             style="fill:url(#radialGradient6129);fill-opacity:1;fill-rule:nonzero;stroke:none" /></g><g
           transform="translate(1419.3438,590.5215)"
           id="g3348"
           style="fill:url(#radialGradient6135);fill-opacity:1"><path
             d="m 0,0 c 39.203,-9.183 37.241,-59.529 78.625,-66.529 15.551,-23.424 62.503,-15.449 79.631,-37.295 -11.968,7.341 -28.165,-0.017 -42.336,1.008 -18.294,1.322 -22.996,20.769 -42.336,24.191 -35.251,6.239 -75.302,9.474 -95.759,31.249 11.579,3.32 29.295,-5.062 38.303,-1.009 C 6.123,-37.066 -7.255,-19.399 0,0"
             id="path3350"
             style="fill:url(#radialGradient6133);fill-opacity:1;fill-rule:nonzero;stroke:none" /></g><g
           transform="translate(1353.8242,546.1689)"
           id="g3352"
           style="fill:url(#radialGradient6139);fill-opacity:1"><path
             d="m 0,0 c 21.619,-2.908 29.508,-19.548 45.36,-28.225 17.524,4.536 56.456,-3.88 68.544,-20.159 8.019,-10.799 11.092,-24.246 18.144,-36.287 6.576,-11.23 16.063,-17.846 18.144,-30.241 5.308,-31.626 -5.932,-58.14 -23.184,-75.6 -5.417,29.864 -23.641,46.918 -26.208,79.632 3.337,5.065 13.413,3.386 16.128,9.072 -6.859,19.7 -30.01,16.765 -44.352,25.201 C 44.139,-59.883 19.134,-28.245 0,-3.023 L 0,0 z"
             id="path3354"
             style="fill:url(#radialGradient6137);fill-opacity:1;fill-rule:nonzero;stroke:none" /></g><g
           transform="translate(1568.5278,451.418)"
           id="g3360"
           style="fill:url(#radialGradient6143);fill-opacity:1"><path
             d="M 0,0 C 8.514,0.894 7.965,10.85 15.121,13.104 32.52,-27.15 -4.2,-56.56 -22.176,-85.681 c -19.218,-31.132 -24.828,-75.572 -58.464,-86.687 -3.238,26.905 14.668,51.057 22.176,73.584 12.136,36.405 1.991,76.191 17.136,111.888 C -23.078,16.963 -9.961,7.713 0,0"
             id="path3362"
             style="fill:url(#radialGradient6141);fill-opacity:1;fill-rule:nonzero;stroke:none" /></g><g
           transform="translate(54.5151,140.9541)"
           id="g3384"
           style="fill:url(#radialGradient6147);fill-opacity:1"><path
             d="M 0,0 C 8.726,-18.672 17.126,-37.487 25.2,-56.448 -18.575,-73.339 -4.391,-23.219 -21.168,-4.032 -15.113,0.374 5.201,0.356 0,0 4.268,-15.101 -7.861,-0.54 0,0"
             id="path3386"
             style="fill:url(#radialGradient6145);fill-opacity:1;fill-rule:nonzero;stroke:none" /></g><g
           transform="translate(1282.61,1783.4693)"
           id="g3388"
           style="fill:#000000;fill-opacity:1"><path
             d="m 0,0 c 17.948,0.792 43.699,10.638 46.368,-8.064 0.734,-5.142 -2.349,-26.389 -3.024,-35.28 C 41.251,-70.905 17.323,-97.367 0,-104.833 c -7.963,17.91 -16.807,34.937 -30.24,47.377 -46.653,21.909 -100.909,0.306 -100.8,-53.424 -8.811,-15.611 -47.197,-5.959 -46.368,13.104 0.266,6.127 7.817,12.664 8.064,20.16 0.329,9.96 -4.01,20.641 -3.024,30.24 7.699,74.972 89.982,73.653 161.28,58.463 C -5.333,9.452 -5.208,2.184 0,0 z"
             id="path3390"
             style="fill:#000000;fill-opacity:1;stroke:none" /></g><g
           transform="translate(1260.962,1704.013)"
           id="g3392"
           style="fill:#000000;fill-opacity:1"><path
             d="m 0,0 c -2.851,-0.846 -6.222,-1.17 -9.072,-2.016 -8.553,-10.375 -8.981,-20.887 -17.136,-28.224 -16.94,-15.24 -27.77,6.843 -42.336,7.056 -9.591,0.141 -15.926,-14.435 -26.208,-8.064 C -82.806,-3.438 -28.843,39.059 0,0 z"
             id="path3394"
             style="fill:#000000;fill-opacity:1;stroke:none" /></g><g
           transform="translate(1545.3438,519.9609)"
           id="g3408"
           style="fill:url(#radialGradient6151);fill-opacity:1"><path
             d="m 0,0 c -39.109,9.617 -70.286,35.884 -78.624,79.632 26.729,3.837 32.92,-25.521 42.336,-45.36 C -28.146,17.117 -7.32,16.133 0,0 z"
             id="path3410"
             style="fill:url(#radialGradient6149);fill-opacity:1;stroke:#231f20;stroke-width:1;stroke-linecap:butt;stroke-linejoin:miter;stroke-miterlimit:10;stroke-opacity:1;stroke-dasharray:none" /></g><g
           transform="translate(1419.3438,590.5215)"
           id="g3412"
           style="fill:url(#radialGradient6155);fill-opacity:1"><path
             d="m 0,0 c 39.203,-9.183 37.241,-59.529 78.625,-66.529 15.551,-23.424 62.503,-15.449 79.631,-37.295 -11.968,7.341 -28.165,-0.017 -42.336,1.008 -18.294,1.322 -22.996,20.769 -42.336,24.191 -35.251,6.239 -75.302,9.474 -95.759,31.249 11.579,3.32 29.295,-5.062 38.303,-1.009 C 6.123,-37.066 -7.255,-19.399 0,0 z"
             id="path3414"
             style="fill:url(#radialGradient6153);fill-opacity:1;stroke:#231f20;stroke-width:1;stroke-linecap:butt;stroke-linejoin:miter;stroke-miterlimit:10;stroke-opacity:1;stroke-dasharray:none" /></g><g
           transform="translate(1353.8242,546.1689)"
           id="g3416"
           style="fill:url(#radialGradient6159);fill-opacity:1"><path
             d="m 0,0 c 21.619,-2.908 29.508,-19.548 45.36,-28.225 17.524,4.536 56.456,-3.88 68.544,-20.159 8.019,-10.799 11.092,-24.246 18.144,-36.287 6.576,-11.23 16.063,-17.846 18.144,-30.241 5.308,-31.626 -5.932,-58.14 -23.184,-75.6 -5.417,29.864 -23.641,46.918 -26.208,79.632 3.337,5.065 13.413,3.386 16.128,9.072 -6.859,19.7 -30.01,16.765 -44.352,25.201 C 44.139,-59.883 19.134,-28.245 0,-3.023 L 0,0 z"
             id="path3418"
             style="fill:url(#radialGradient6157);fill-opacity:1;stroke:#231f20;stroke-width:1;stroke-linecap:butt;stroke-linejoin:miter;stroke-miterlimit:10;stroke-opacity:1;stroke-dasharray:none" /></g><g
           transform="translate(1568.5278,451.418)"
           id="g3424"
           style="fill:url(#radialGradient6163);fill-opacity:1"><path
             d="M 0,0 C 8.514,0.894 7.965,10.85 15.121,13.104 32.52,-27.15 -4.2,-56.56 -22.176,-85.681 c -19.218,-31.132 -24.828,-75.572 -58.464,-86.687 -3.238,26.905 14.668,51.057 22.176,73.584 12.136,36.405 1.991,76.191 17.136,111.888 C -23.078,16.963 -9.961,7.713 0,0 z"
             id="path3426"
             style="fill:url(#radialGradient6161);fill-opacity:1;stroke:#231f20;stroke-width:1;stroke-linecap:butt;stroke-linejoin:miter;stroke-miterlimit:10;stroke-opacity:1;stroke-dasharray:none" /></g><g
           transform="translate(-1267.3967,-102.03155)"
           id="g3444"
           style="fill:url(#radialGradient6185);fill-opacity:1;stroke:none"><path
             d="m 2852.5755,972.08467 c 0.942,5.221 -25.908,34.56303 -37.296,37.29603 -6.379,1.531 -15.964,-0.739 -21.168,-2.015 -43.263,34.4449 -87.912,-26.38203 -122.976,-44.35313 -3.122,-7.965 -8.787,-13.389 -19.151,-14.111 -0.936,-3.433 -2.825,-5.912 -2.016,-11.088 1.781,-1.915 5.002,-2.391 7.055,-4.033 5.355,0.927 7.063,10.088 13.104,7.056 0.985,-6.696 -6.497,-4.926 -7.056,-10.079 6.492,-1.116 7.041,3.711 13.105,3.023 13.292,-10.9 36.632,-11.751 46.367,-26.207 -2.942,-1.09 -5.807,-2.257 -10.079,-2.017 2.162,-6.572 10.308,-7.163 12.095,-14.111 -3.154,-0.206 -7.4,0.679 -9.071,-1.008 11.605,-10.62 35.91,-34.034 58.463,-32.257 9.697,0.765 44.121,8.541 52.416,-1.008 14.349,-16.516 -16.724,-33.242 -15.12,-49.391 1.56,-15.71 24.473,-36.619 28.224,-55.44 8.038,16.213 -16.052,29.487 -14.112,49.392 0.697,7.149 17.422,38.276 21.168,39.311 6.473,1.79 11.267,-6.552 18.144,-5.04 1.75,27.745 23.667,42.727 46.368,25.201 8.522,9.369 6.594,34.063 5.04,48.383 -20.461,0.067 -56.925,-0.314 -75.6,8.064 6.563,11.918 33.371,3.589 46.368,9.073 -5.471,10.32 -6.033,25.551 -13.104,34.271 -16.808,-2.07 -36.127,-19.485 -52.416,-9.072 1.227,15.535 29.024,7.836 31.248,20.1601 z m -423.359,183.45493 c -14.251,12.054 -21.462,26.088 -38.304,35.281 -34.937,19.067 -68.037,56.437 -90.72,85.679 -27.861,35.92 -43.858,92.184 -87.696,110.88 -4.699,-4.822 -7.535,-18.945 -6.048,-31.247 6.496,-53.733 36.095,-118.176 59.472,-159.265 26.372,-46.35 65.36,-86.723 100.8,-129.023 27.792,-33.172 61.417,-55.3239 98.784,-77.61591 13.694,-8.16902 23.996,-19.47412 44.351,-18.14402 -0.761,6.802 -9.439,10.488 -7.055,17.13702 14.137,2.012 28.034,-8.82102 38.303,-1.00802 -1.138,7.93304 -10.945,7.19804 -14.112,13.10403 5.5,16.1559 28.855,5.797 40.32,8.063 -12.75,17.1539 -46.322,18.8609 -55.439,36.2869 23.766,-0.149 40.961,-12.042 62.496,-11.087 -6.123,18.741 -34.208,15.52 -42.336,32.256 11.212,1.852 20.839,-7.227 28.224,0 -41.509,35.227 -90.468,54.39 -131.04,88.703 z m 368.927,651.168 c -9.041,50.5 -105.141,44.938 -103.824,-8.065 17.043,7.658 22.645,23.349 44.353,26.208 m -41.329,310.463 c -2.977,7.517 -1.289,15.274 -4.032,21.169 -4.979,10.702 -19.175,17.454 -21.168,31.248 -24.007,27.267 -74.814,36.457 -116.927,47.376 -17.549,4.55 -38.692,9.361 -52.416,0 -33.14,2.402 -57.446,-3.389 -86.688,-6.049 -1.23,-5.393 3.827,-8.291 1.008,-12.095 -35.799,-2.13 -54.971,-31.441 -85.68,-42.336 -18.217,-6.464 -28.679,-20.824 -32.256,-38.304 -7.756,-1.316 -15.168,-2.976 -15.12,-12.096 1.166,-3.539 8.865,-0.543 9.072,-5.04 -3.147,-7.941 -6.463,-15.713 -5.04,-28.224 -10.924,-22.049 -19.643,-48.978 -20.16,-77.616 -0.742,-41.147 1.329,-81.85 -9.072,-121.968 -4.725,-18.224 -8.273,-43.971 -3.023,-56.448 -10.753,-25.977 -5.644,-50.1 -9.073,-77.615 -2.392,-19.199 -20.326,-31.226 -24.192,-49.393 -5.204,-24.453 -4.72,-54.595 0,-77.615 -0.339,-4.364 -5.531,-3.877 -6.047,-8.064 23.832,-39.227 -45.192,-70.532 -4.033,-92.736 5.902,1.826 6.66,8.796 14.112,9.072 11.849,-20.245 -3.507,-51.882 9.072,-71.568 -7.856,2.561 -9.42,11.412 -14.111,17.136 -8.614,-9.323 -2.81,-34.281 6.047,-41.327 8.003,3.968 0.551,9.655 -1.008,15.119 3.379,2.355 7.374,10.158 11.088,6.048 -6.063,-9.308 3.672,-12.464 5.04,-20.16 -1.682,-3.693 -8.131,-2.62 -10.08,-6.048 -0.943,-11.066 14.779,-12.844 20.16,-6.048 3.186,-8.786 14.526,-1.976 21.168,-4.032 -3.732,-52.29 43.889,-70.223 46.368,-122.976 4.373,-4.362 12.699,-4.773 19.152,-7.056 -0.489,-5.528 0.705,-9.374 3.024,-12.095 6.378,3.622 18.297,7.966 19.152,-7.056 13.832,0.056 15.1,-12.451 26.208,-15.121 7.684,12.377 -7.4,20.137 -6.048,35.281 -3.587,2.516 -11.33,-2.672 -13.104,3.023 1.868,3.508 3.833,6.919 8.064,8.064 3.49,-1.214 2.286,-7.122 6.048,-8.064 8.9,2.844 13.979,1.766 21.168,1.008 -2.061,17.166 -17.089,21.27 -22.176,35.28 -3.382,9.316 1.788,18.557 0,29.232 -2.911,17.386 -29.979,12.123 -28.224,31.248 56.918,-11.625 87.859,-49.228 142.127,-63.504 -0.141,-4.561 -4.484,-4.922 -4.031,-10.079 16.01,-25.183 48.536,-26.895 76.608,-31.249 21.324,13.648 45.536,-16.266 64.511,10.08 8.862,19.92 32.623,45.17 11.089,66.528 -42.822,6.952 -56.471,53.862 -17.137,75.601 18.522,10.235 10.473,26.721 -8.063,34.272 -20.841,8.488 -32.855,-1.94 -59.473,-3.025 -41.116,-1.676 -56.442,10.801 -83.663,-1.008 -7.223,27.637 31.709,36.601 52.416,36.288 -0.676,-8.06 -8.983,-8.489 -7.056,-19.152 38.066,-14.743 63.927,14.359 99.792,17.136 1.183,12.848 3.303,30.083 14.111,36.288 1.979,56.91 -89.753,14.232 -97.775,61.488 -10.447,-5.46 -20.532,-21.649 -36.289,-15.12 -0.882,22.694 32.205,69.824 44.353,31.248 7.65,-2.756 14.899,0.386 20.16,3.023 24.21,3.692 51.8,-10.997 72.575,-8.063 24.378,3.442 32.601,30.167 42.336,50.399 -5.91,15.685 -9.641,31.246 -11.088,51.409 -2.621,36.528 -22.12,76.987 -19.151,105.839 1.413,13.743 13.041,30.949 16.127,48.384 3.459,19.538 2.873,35.884 20.16,39.312 14.247,-3.428 10.836,9.5 22.176,17.136 15.508,10.443 57.727,2.259 27.216,22.176 26.461,6.916 -0.96,15.041 -1.008,33.264 -0.047,18.346 9.121,56.252 -3.024,68.544 -6.18,6.255 -18.422,1.19 -18.144,10.079 13.806,31.135 -9.319,52.367 -16.128,69.552 z m 1055.374,-2342.58603 0,-104.831 -2419.195,0 c -78.0258,597.9688 -43.2905,832.8317 219.807,1188.13 80.891,102.0721 143.177,209.24103 266.048,266.41003 16.15,7.513 68.763,30.261 67.536,60.48 -0.746,18.377 -25.266,33.477 -32.256,46.367 -19.721,36.369 -15.338,80.382 -18.144,135.072 -1.187,23.134 -6.896,46.345 3.024,66.528 10.208,20.768 30.82,31.01 32.256,59.472 1.318,26.135 -2.871,47.529 6.048,73.584 4.945,14.446 14.782,20.397 20.16,33.264 15.133,36.202 2.123,83.275 18.144,116.928 14.951,31.404 41.314,45.175 59.471,74.591 9.682,15.682 14.259,36.388 24.193,53.424 11.03,18.918 30.554,32.937 37.2959,51.408 10.4801,28.717 9.5231,56.034 20.1601,80.64 20.636,47.741 48.091,84.275 78.623,121.968 27.888,34.427 59.378,76.873 94.752,105.839 18.307,14.99 42.258,21.03 64.512,35.281 20.937,13.406 43.757,20.495 74.592,25.199 32.409,4.944 61.296,19.876 89.712,18.145 25.688,-1.566 56.676,-9.851 84.672,-15.121 28.337,-5.334 61.327,-9.528 80.639,-18.144 12.866,-5.739 39.186,-20.005 47.376,-31.248 4.415,-6.06 4.31,-17.411 8.064,-23.184 12.216,-18.784 36.141,-31.071 51.408,-49.392 14.395,-17.272 31.63,-34.206 44.353,-55.439 36.357,-60.683 66.275,-136.547 89.703,-212.688 17.271,-56.13 28.863,-46.554 68.551,-80.032 15.692,-13.235 -7.404,-52.999 0.669,-68.606 2.825,-5.461 3.335,-13.31 6.797,-19.32 7.013,-12.176 21.17,-23.792 23.303,-34.439 2.738,-13.665 1.831,-43.918 -0.971,-58.799 -3.434,-18.247 -1.737,-38.647 -4.854,-54.599 -6.59,-33.73 -24.559,-52.154 -37.924,-93.211 -5.825,-17.896 -6.205,-38.669 -14.688,-63.567 -7.744,-22.729 -22.006,-32.862 -26.616,-50.689 -1.761,-6.807 4.989,-52.79 -14.802,-75.419 -9.9,-11.321 -12.22,29.478 -26.883,33.692 -10.404,-10.509 -9.567,-60.773 -25.381,-65.339 -12.491,-3.607 -4.307,-2.392 -14.931,5.539 -21.189,15.821 -38.588,29.754 -48.999,11.534 -3.556,-6.222 -6.414,-12.826 -8.254,-19.768 -8.555,-32.268 -18.636,-76.711 5.039,-95.759 16.409,-13.202 43.779,-21.023 65.52,-31.248 42.864,-20.158 85.46,-44.319 124.992,-67.536 27.631,-16.228 44.991,-30.639 76.608,-41.328 16.901,-5.715 37.634,-15.2299 54.431,-24.1919 30.59,-16.32103 69.312,-39.37813 89.713,-67.53713 33.545,-46.298 65.18,-85.22 96.767,-138.095 17.811,-29.812 39.846,-77.359 42.336,-113.903 2.265,-33.25 -3.502,-62.003 4.032,-91.728 2.347,-9.261 15.516,-16.333 20.16,-26.208 13.675,-29.08 24.082,-58.575 33.264,-95.759 4.686,-18.977 30.975,-40.048 44.352,-57.456 6.802,-8.853 10.24,-21.638 17.136,-32.257 6.91,-10.64 16.857,-19.224 21.168,-28.224 25.355,-52.936 37.573,-120.291 71.568,-173.375 16.77,-26.186 21.118,-57.519 37.296,-84.671005 10.511,-17.644 17.542,-42.496 31.248,-60.481 10.568,-13.868 8.994,-19.311 16.127,-38.3049997 16.963,-45.1590003 44.827,-106.9729953 66.528,-153.2139953 6.075,-12.943 27.697,-31.094 46.369,-37.296 9.305,-3.092 39.737,-6.577 47.375,-11.088 0,-34.944 -7.638,4.511 0,0 0,-34.944 -7.638,4.511 0,0 z"
             id="path3446"
             style="fill:#000000;fill-opacity:1;stroke:none" /></g></g></g><path
       d="M 0,0 2,0 2,2196 0,2196 0,0 z"
       id="path3542"
       style="fill:#f5f5f5;fill-opacity:1;fill-rule:nonzero;stroke:none" /></g></svg>